<svg xmlns="http://www.w3.org/2000/svg" width="307.692" height="300" data-name="adobe xd"><path fill="#2e001e" d="M12.821 12.821h282.051V287.18H12.821Z" data-name="Path 12"/><path fill="#ff2bc2" d="M0 0v300h307.692V0Zm12.821 12.821h282.051v274.358H12.821Z" data-name="Path 13"/><path fill="#ff2bc2" d="M223.462 126.026a17.6 17.6 0 0 0-7.436-1.282c-16.154 0-26.923 12.436-26.923 33.077 0 23.59 11.026 33.077 25.385 33.077a24.188 24.188 0 0 0 8.846-1.41v-63.462Zm-57.436 32.821c0-29.872 19.231-53.205 50.769-53.205a56.853 56.853 0 0 1 6.667.256V72.564a1.285 1.285 0 0 1 1.282-1.282h20.641c1.026 0 1.282.385 1.282 1.026v117.179a91.315 91.315 0 0 0 .641 12.564c0 .9 0 1.026-.769 1.41a76.367 76.367 0 0 1-32.821 7.436c-27.82.001-47.692-17.179-47.692-52.051Zm-43.718-20.769 35.9 69.615c.641 1.026.256 2.051-.769 2.051h-22.31a2.516 2.516 0 0 1-2.692-1.667q-12.308-25.385-25.128-52.692h-.258c-7.692 17.18-16.154 35.9-24.359 52.821a2.462 2.462 0 0 1-2.308 1.41H59.103c-1.282 0-1.41-1.026-.769-1.795l35.128-67.567-33.974-67.177a1.135 1.135 0 0 1 .9-1.923h22.048c1.282 0 1.923.256 2.308 1.41 8.077 17.051 16.282 33.846 23.974 51.026h.256c7.436-16.923 15.641-33.974 23.462-50.769.641-1.026 1.026-1.667 2.308-1.667h20.641c1.026 0 1.41.769.769 1.923Z" data-name="Path 14"/></svg>