<svg xmlns="http://www.w3.org/2000/svg" enable-background="new 0 0 24 24" viewBox="0 0 24 24"><path fill="#6C4EB0" d="M8.153,3.711c0.899-1.136,2.592-1.698,3.746-1.727c3.236-0.061,4.586,4.013,4.689,5.633l1.498,0.454c-0.345-4.966-3.4-7.571-6.322-7.571C9.022,0.5,6.49,2.514,5.47,5.467c-1.393,3.937-0.479,7.722,1.229,10.751C6.55,16.415,6.46,16.763,6.49,17.094c0.029,0.91,0.792,1.667,1.708,1.667h0.06c0.959-0.031,1.693-0.832,1.648-1.787c0-0.908-0.779-1.664-1.693-1.664H8.153l-0.225,0.029c-1.243-2.121-1.768-4.393-1.572-6.843C6.474,6.648,7.074,5.043,8.153,3.711L8.153,3.711z"/><path fill="#6C4EB0" d="M0.932,20.897c1.005,1.514,3.058,2.482,5.305,2.482c0.599,0,1.229-0.045,1.842-0.196c3.897-0.757,6.848-3.118,8.541-6.6l0.014-0.033c0.869-0.075,1.543-0.849,1.499-1.772c-0.046-0.924-0.796-1.665-1.708-1.665h-0.061c-0.943,0.031-1.678,0.833-1.648,1.787c0.03,0.484,0.226,0.879,0.494,1.166c-1.048,2.059-2.621,3.573-5.004,4.845c-1.603,0.847-3.296,1.166-4.944,0.939c-1.378-0.197-2.457-0.818-3.116-1.818c-0.989-1.514-1.078-3.148-0.255-4.784c0.601-1.181,1.499-2.044,2.099-2.469c-0.15-0.393-0.33-1.059-0.42-1.558C-0.867,14.433-0.417,18.823,0.932,20.897L0.932,20.897z"/><path fill="#6C4EB0" d="M23.466,20.229c0.898-1.817,0.824-4.875-1.469-7.494l-0.014,0.03c-2.321-2.756-5.738-4.27-9.635-4.27h-0.51C11.584,7.936,11,7.587,10.341,7.587h-0.045c-0.943,0-1.678,0.819-1.647,1.771c0.03,0.909,0.794,1.666,1.708,1.666h0.074c0.675-0.03,1.259-0.455,1.498-1.061h0.555c2.31,0,4.496,0.682,6.489,2.014c1.528,1.014,2.622,2.346,3.236,3.936c0.538,1.302,0.509,2.575-0.045,3.636c-0.854,1.665-2.294,2.543-4.196,2.543c-1.199,0-2.367-0.379-2.967-0.651c-0.36,0.301-0.959,0.802-1.394,1.104c1.318,0.605,2.651,0.953,3.94,0.953C20.469,23.5,22.641,21.836,23.466,20.229L23.466,20.229z"/><path fill="#5E4499" d="M11.764,0.5C9.022,0.5,6.49,2.514,5.47,5.467c-1.393,3.937-0.479,7.722,1.229,10.751C6.55,16.415,6.46,16.763,6.49,17.094c0.029,0.91,0.792,1.667,1.708,1.667h0.06c0.959-0.031,1.693-0.832,1.648-1.787c0-0.908-0.779-1.664-1.693-1.664H8.153l-0.225,0.029c-1.243-2.121-1.768-4.393-1.572-6.843c0.118-1.848,0.719-3.453,1.797-4.785c0.899-1.136,2.592-1.698,3.746-1.727c0.024,0,0.048-0.001,0.072-0.001c0.01,0,0.02,0,0.03,0V0.506C11.921,0.502,11.842,0.5,11.764,0.5L11.764,0.5z"/><path fill="#5E4499" d="M3.569 11.223C.921 13.139.014 15.476 0 17.489v.095c.009 1.321.401 2.496.931 3.313 1.005 1.514 3.058 2.482 5.305 2.482.599 0 1.229-.045 1.842-.196 1.442-.28 2.754-.78 3.921-1.475v-1.912c-.54.394-1.137.764-1.795 1.115-1.268.67-2.593 1.01-3.907 1.01-.347 0-.693-.024-1.037-.071-1.378-.197-2.457-.818-3.116-1.818-.989-1.514-1.078-3.148-.255-4.784.601-1.181 1.499-2.044 2.099-2.469C3.839 12.388 3.659 11.722 3.569 11.223L3.569 11.223zM10.341 7.587h-.045c-.943 0-1.678.819-1.647 1.771.03.909.794 1.666 1.708 1.666h.074c.675-.03 1.259-.455 1.498-1.061H12V8.496h-.163C11.584 7.936 11 7.587 10.341 7.587L10.341 7.587z"/></svg>